<!-- Baton dock icon — DARK. Rounded-rect plate in near-black with a subtle vertical gradient (matches the Tonebox dark dock), with the Baton mark (waveform + note) in #E07A4B centered on it. The lower waves' opacity fade lets them brown out against the dark plate, exactly like Tonebox. -->
<svg xmlns="http://www.w3.org/2000/svg" width="1024" height="1024" viewBox="0 0 1024 1024">
  <defs>
    <linearGradient id="plateDark" x1="0" y1="0" x2="0" y2="1">
      <stop offset="0" stop-color="#1C1C1E"/>
      <stop offset="1" stop-color="#0E0F12"/>
    </linearGradient>
  </defs>
  <rect x="104" y="104" width="816" height="816" rx="184" ry="184" fill="url(#plateDark)" stroke="#2A2A2E" stroke-width="2"/>

  <g transform="translate(512 512) scale(0.72) translate(-512 -512)">
    <path d="M 180.80 372.00 Q 328.00 261.60 512.00 372.00 T 843.20 372.00" stroke="#E07A4B" stroke-width="71.76" stroke-linecap="round" fill="none" opacity="1.0"/>
    <path d="M 180.80 556.00 Q 328.00 445.60 512.00 556.00 T 843.20 556.00" stroke="#E07A4B" stroke-width="71.76" stroke-linecap="round" fill="none" opacity="0.82"/>
    <path d="M 180.80 740.00 Q 328.00 850.40 512.00 740.00 T 843.20 740.00" stroke="#E07A4B" stroke-width="71.76" stroke-linecap="round" fill="none" opacity="0.64"/>
    <g stroke="none" fill="#E07A4B" opacity="1.0">
      <path d="M 358.00 246.00 h 40.00 v -158.00 h -40.00 z"/>
      <path d="M 398.00 88.00 Q 506.00 100.00 506.00 190.00 Q 506.00 236.00 458.00 250.00 Q 496.00 206.00 466.00 168.00 Q 438.00 132.00 398.00 148.00 z"/>
      <g transform="translate(322.00 244.00) rotate(-24)"><ellipse cx="0" cy="0" rx="70.00" ry="52.00"/></g>
    </g>
  </g>
</svg>
